<svg height="512" width="512" xmlns="http://www.w3.org/2000/svg"><path d="M497 216h-45V41c0-8.284-6.716-15-15-15H15C6.716 26 0 32.716 0 41v340c0 8.284 6.716 15 15 15h151v60h-15c-8.284 0-15 6.716-15 15s6.716 15 15 15h150c8.284 0 15-6.716 15-15s-6.716-15-15-15h-15v-60h46v75c0 8.284 6.716 15 15 15h150c8.284 0 15-6.716 15-15V231c0-8.284-6.716-15-15-15zM256 456h-60v-60h60zm76-90H30v-60h302zm0-135v45H30V56h392v160h-75c-8.284 0-15 6.716-15 15zm150 225H362V246h120z"/><circle cx="422" cy="411" r="15"/></svg>