<svg height="512" viewBox="0 0 64 64" width="512" xmlns="http://www.w3.org/2000/svg"><path d="M60 1H16c-1.654 0-3 1.346-3 3v15H6c-2.757 0-5 2.243-5 5v24c0 2.757 2.243 5 5 5h9.612l-1.333 4H11c-1.654 0-3 1.346-3 3v3h30v-3c0-1.654-1.346-3-3-3h-3.279l-1.333-4H40c2.757 0 5-2.243 5-5v-1h15c1.654 0 3-1.346 3-3V4c0-1.654-1.346-3-3-3zM16 3h44c.551 0 1 .449 1 1v5H15V4c0-.551.449-1 1-1zM6 21h34c1.654 0 3 1.346 3 3v19H3V24c0-1.654 1.346-3 3-3zm39 6h12v14H45zm-9 33v1H10v-1c0-.551.449-1 1-1h24c.551 0 1 .449 1 1zm-6.388-3H16.388l1.333-4h10.558zM40 51H6c-1.654 0-3-1.346-3-3v-3h40v3c0 1.654-1.346 3-3 3zm20-6H45v-2h14V25H45v-1c0-2.757-2.243-5-5-5H15v-8h46v33c0 .551-.449 1-1 1z"/><path d="M18 47h2v2h-2zm4 0h2v2h-2zm4 0h2v2h-2zM21 5h2v2h-2zm4 0h2v2h-2zm-8 0h2v2h-2zm0 8h2v2h-2zm4 0h38v2H21zm26 4h12v2H47zm0 4h12v2H47zM8 41h20c1.654 0 3-1.346 3-3V26c0-1.654-1.346-3-3-3H8c-1.654 0-3 1.346-3 3v12c0 1.654 1.346 3 3 3zM7 26c0-.551.449-1 1-1h20c.551 0 1 .449 1 1v12c0 .551-.449 1-1 1H8c-.551 0-1-.449-1-1z"/><path d="M15.057 37.667l3.997-12.003 1.898.632-3.997 12.003zm7.65-.96L27.414 32l-4.707-4.707-1.414 1.414L24.586 32l-3.293 3.293zm-8-1.414L11.414 32l3.293-3.293-1.414-1.414L8.586 32l4.707 4.707zM33 23h8v2h-8zm0 4h8v2h-8zm0 4h8v2h-8zm0 4h8v2h-8zm2 4h2v2h-2zm4 0h2v2h-2z"/></svg>