<svg xmlns="http://www.w3.org/2000/svg" viewBox="0 0 491.203 491.203"><path d="M487.298 326.733l-62.304-37.128 62.304-37.128a8 8 0 000-13.744l-62.304-37.128 62.304-37.128a8 8 0 000-13.744l-237.6-141.6a8 8 0 00-8.192 0l-237.6 141.6a8 8 0 000 13.744l62.304 37.128-62.305 37.128a8 8 0 000 13.744l62.304 37.128-62.304 37.128a8 8 0 000 13.744l237.6 141.6a8.047 8.047 0 008.192 0l237.6-141.6a8 8 0 00.001-13.744zM23.625 157.605L245.601 25.317l221.976 132.288-221.976 132.288L23.625 157.605zm0 88l58.208-34.68 159.672 95.2a8 8 0 008.192 0l159.672-95.2 58.208 34.68-221.976 132.288L23.625 245.605zm221.976 220.288L23.625 333.605l58.208-34.68 159.672 95.2a8 8 0 008.192 0l159.672-95.2 58.208 34.68-221.976 132.288z"/></svg>